<svg xmlns="http://www.w3.org/2000/svg">
  <defs>
    <symbol id="icon-arrow-right" viewBox="0 0 100 100">
      <path d="M67.34,15.9a3.55,3.55,0,1,0-5,5L87.85,46.44H3.53a3.56,3.56,0,0,0,0,7.11H87.85L62.3,79.06a3.62,3.62,0,0,0,0,5,3.53,3.53,0,0,0,5,0l31.6-31.6a3.47,3.47,0,0,0,0-5Z"/>
    </symbol>
    <symbol id="icon-arrow-left" viewBox="0 0 100 100">
      <path d="M32.66,15.9a3.55,3.55,0,1,1,5,5L12.15,46.44H96.47a3.56,3.56,0,0,1,0,7.11H12.15L37.7,79.06a3.62,3.62,0,0,1,0,5,3.53,3.53,0,0,1-5,0l-31.6-31.6a3.47,3.47,0,0,1,0-5Z"/>
    </symbol>
    <symbol id="icon-arrow-circle-left" viewBox="0 0 100 100">
      <path d="M2.5,50c0,26.2,21.3,47.5,47.5,47.5S97.5,76.2,97.5,50S76.2,2.5,50,2.5S2.5,23.8,2.5,50z M90.7,50c0,22.4-18.2,40.7-40.7,40.7S9.3,72.4,9.3,50S27.6,9.3,50,9.3S90.7,27.6,90.7,50z"/>
      <polygon points="57,72.6 61.8,67.8 44.1,50 61.8,32.2 57,27.4 34.4,50"/>
    </symbol>
    <symbol id="icon-arrow-circle-left" viewBox="0 0 100 100">
      <path d="M2.5,50c0,26.2,21.3,47.5,47.5,47.5S97.5,76.2,97.5,50S76.2,2.5,50,2.5S2.5,23.8,2.5,50z M90.7,50c0,22.4-18.2,40.7-40.7,40.7S9.3,72.4,9.3,50S27.6,9.3,50,9.3S90.7,27.6,90.7,50z"/>
      <polygon points="57,72.6 61.8,67.8 44.1,50 61.8,32.2 57,27.4 34.4,50"/>
    </symbol>
    <symbol id="icon-external" viewBox="-5 -10 110 110">
      <path d="m93.75 84.375v-68.75c0-5.3125-4.0625-9.375-9.375-9.375h-68.75c-5.3125 0-9.375 4.0625-9.375 9.375v68.75c0 5.3125 4.0625 9.375 9.375 9.375h68.75c5.3125 0 9.375-4.0625 9.375-9.375zm-78.125 3.125c-1.875 0-3.125-1.25-3.125-3.125v-68.75c0-1.875 1.25-3.125 3.125-3.125h68.75c1.875 0 3.125 1.25 3.125 3.125v68.75c0 1.875-1.25 3.125-3.125 3.125zm42.812-13.438c-1.25 1.25-3.125 1.25-4.375 0-0.625-0.625-0.9375-1.25-0.9375-2.1875s0.3125-1.5625 0.9375-2.1875l16.562-16.562h-48.75c-1.875 0-3.125-1.25-3.125-3.125s1.25-3.125 3.125-3.125h48.75l-16.562-16.562c-0.625-0.625-0.9375-1.25-0.9375-2.1875s0.3125-1.5625 0.9375-2.1875c1.25-1.25 3.125-1.25 4.375 0l21.875 21.875c0.3125 0.3125 0.625 0.625 0.625 0.9375 0.3125 0.625 0.3125 1.5625 0 2.5-0.3125 0.3125-0.3125 0.625-0.625 0.9375z"/>
    </symbol>
    <symbol id="icon-page-next" viewBox="-5 -10 110 110">
      <path d="m93.75 84.375v-68.75c0-5.3125-4.0625-9.375-9.375-9.375h-68.75c-5.3125 0-9.375 4.0625-9.375 9.375v68.75c0 5.3125 4.0625 9.375 9.375 9.375h68.75c5.3125 0 9.375-4.0625 9.375-9.375zm-78.125 3.125c-1.875 0-3.125-1.25-3.125-3.125v-68.75c0-1.875 1.25-3.125 3.125-3.125h68.75c1.875 0 3.125 1.25 3.125 3.125v68.75c0 1.875-1.25 3.125-3.125 3.125zm42.812-13.438c-1.25 1.25-3.125 1.25-4.375 0-0.625-0.625-0.9375-1.25-0.9375-2.1875s0.3125-1.5625 0.9375-2.1875l16.562-16.562h-48.75c-1.875 0-3.125-1.25-3.125-3.125s1.25-3.125 3.125-3.125h48.75l-16.562-16.562c-0.625-0.625-0.9375-1.25-0.9375-2.1875s0.3125-1.5625 0.9375-2.1875c1.25-1.25 3.125-1.25 4.375 0l21.875 21.875c0.3125 0.3125 0.625 0.625 0.625 0.9375 0.3125 0.625 0.3125 1.5625 0 2.5-0.3125 0.3125-0.3125 0.625-0.625 0.9375z"/>
    </symbol>
    <symbol id="icon-page-prev" viewBox="-5 -10 110 110">
      <path d="m6.25 84.375v-68.75c0-5.3125 4.0625-9.375 9.375-9.375h68.75c5.3125 0 9.375 4.0625 9.375 9.375v68.75c0 5.3125-4.0625 9.375-9.375 9.375h-68.75c-5.3125 0-9.375-4.0625-9.375-9.375zm78.125 3.125c1.875 0 3.125-1.25 3.125-3.125v-68.75c0-1.875-1.25-3.125-3.125-3.125h-68.75c-1.875 0-3.125 1.25-3.125 3.125v68.75c0 1.875 1.25 3.125 3.125 3.125zm-42.812-13.438c1.25 1.25 3.125 1.25 4.375 0 0.625-0.625 0.9375-1.25 0.9375-2.1875s-0.3125-1.5625-0.9375-2.1875l-16.562-16.562h48.75c1.875 0 3.125-1.25 3.125-3.125s-1.25-3.125-3.125-3.125h-48.75l16.562-16.562c0.625-0.625 0.9375-1.25 0.9375-2.1875s-0.3125-1.5625-0.9375-2.1875c-1.25-1.25-3.125-1.25-4.375 0l-21.875 21.875c-0.3125 0.3125-0.625 0.625-0.625 0.9375-0.3125 0.625-0.3125 1.5625 0 2.5 0.3125 0.3125 0.3125 0.625 0.625 0.9375z"/>
    </symbol>
    <symbol id="icon-menu" viewBox="-5 -10 110 110">
      <g>
        <path d="m16.898 24.699v-1.1992c0-1.3984 1.1016-2.5 2.5-2.5h61.199c1.3984 0 2.5 1.1016 2.5 2.5v1.1992c0 1.3984-1.1016 2.5-2.5 2.5h-61.199c-1.3984 0-2.5-1.0977-2.5-2.5z"/>
        <path d="m80.602 38.102h-50c-1.3984 0-2.5 1.1016-2.5 2.5v1.1992c0 1.3984 1.1016 2.5 2.5 2.5h50.102c1.3984 0 2.5-1.1016 2.5-2.5v-1.1992c-0.10156-1.3008-1.2031-2.5-2.6016-2.5z"/>
        <path d="m80.602 55.301h-38.102c-1.3984 0-2.5 1.1016-2.5 2.5v1.1992c0 1.3984 1.1016 2.5 2.5 2.5h38.199c1.3984 0 2.5-1.1016 2.5-2.5v-1.1992c-0.097657-1.3008-1.1992-2.5-2.5977-2.5z"/>
        <path d="m80.602 72.5h-25.203c-1.3984 0-2.5 1.1016-2.5 2.5v1.1992c0 1.3984 1.1016 2.5 2.5 2.5h25.301c1.3984 0 2.5-1.1016 2.5-2.5v-1.1992c-0.097657-1.3008-1.1992-2.5-2.5977-2.5z"/>
      </g>
    </symbol>
    <symbol id="icon-book" viewBox="-5 -10 110 110">
      <path d="m14.781 88.57v-78.164c0-1.8672 0.74219-3.6562 2.0625-4.9766 1.3203-1.3242 3.1133-2.0664 4.9805-2.0664h61.387c0.83984 0 1.5117 0.67578 1.5117 1.5117v89.227c0 0.83984-0.67188 1.5117-1.5117 1.5117h-61.387c-1.8672 0-3.6602-0.73828-4.9805-2.0625-1.3203-1.3203-2.0625-3.1094-2.0625-4.9805zm66.922-7.1367v-75.047h-59.879c-1.0664 0-2.0898 0.42578-2.8438 1.1758-0.75391 0.75391-1.1758 1.7812-1.1758 2.8438v72.289c1.168-0.81641 2.5703-1.2617 4.0195-1.2617zm0 5.582v-2.5586h-59.879c-1.0664 0-2.0898 0.42188-2.8438 1.1758-0.75391 0.75391-1.1758 1.7773-1.1758 2.8438v0.09375c0 1.0664 0.42187 2.0938 1.1758 2.8438 0.75391 0.75391 1.7773 1.1797 2.8438 1.1797h59.879v-2.5547h-59.836c-0.82813 0-1.5117-0.67578-1.5117-1.5117 0-0.83203 0.68359-1.5117 1.5117-1.5117zm-48.68-44.379c-0.83203 0-1.5117-0.67578-1.5117-1.5117 0-0.83203 0.67969-1.5117 1.5117-1.5117h33.461c0.83594 0 1.5078 0.67969 1.5078 1.5117 0 0.83594-0.67188 1.5117-1.5078 1.5117zm34.969-26.609v16.73c0 0.83984-0.67188 1.5117-1.5078 1.5117h-33.461c-0.83594 0-1.5117-0.67188-1.5117-1.5117v-16.73c0-0.83594 0.67578-1.5078 1.5117-1.5078h33.461c0.83594 0 1.5078 0.67188 1.5078 1.5078zm-3.0195 1.5117h-30.438v13.711h30.438z" fill-rule="evenodd"/>
    </symbol>
  </defs>
</svg>